<svg id="Layer_1" data-name="Layer 1" xmlns="http://www.w3.org/2000/svg" viewBox="0 0 655.43 121.18"><defs><style>.cls-1{fill:#fff;}.cls-2{fill:#1a428a;}.cls-3{fill:#e1251b;}</style></defs><path class="cls-1" d="M7.31,2.52l1,3.76A6.9,6.9,0,0,0,8.67,8l-.25.48A7.19,7.19,0,0,0,5.59,11C4,13.08,3.68,13.66,4.3,15.08a7.2,7.2,0,0,1,.28.73,7.09,7.09,0,0,1,.34,1.71,3.23,3.23,0,0,0,2,3.14,2,2,0,0,0,.79.16,2.12,2.12,0,0,0,1.47-.64c.05.13.1.26.16.4.2.53.42,1.09.67,1.78l.11.22.1.12c.66.85,1.67,2.15,3,2.15a2.25,2.25,0,0,0,.52-.07c.61,0,.85.3,1.11,1.23a2.69,2.69,0,0,0,.78,3,7.43,7.43,0,0,1,.51.55c.14.23.27.5.4.76a4.57,4.57,0,0,0,1,1.51c.05.06.12.12.2.2a6.88,6.88,0,0,1,.54.54c.6.74,1.12,1.51,1.67,2.31s1.09,1.62,1.74,2.41l.07.09.1.08c2.29,1.73,3.46,2.92,4.16,4.27l0,.07.05.07c1.17,1.54,2.07,2.82,2.87,4a23.91,23.91,0,0,0,4.92,5.69,8.76,8.76,0,0,0,1,1.11A3.15,3.15,0,0,1,36,54.31c.28,2.76,3.89,6.15,6.79,8.88l1.06,1a75.13,75.13,0,0,0,12.45,10c2.56,7,8,24.3,6.72,39.67-.41,1.6-.74,3.11-1.06,4.58-.19.82-.37,1.65-.56,2.49l1,.23h42.76l1-.18c-.17-.93-.37-1.87-.56-2.81l-.05-.25c-.06-.34-.15-.66-.24-1a3.89,3.89,0,0,1-.21-1,1.59,1.59,0,0,1,.15-.35,2.91,2.91,0,0,0,.36-1.07c.6-8.81,2.47-15.53,4.45-22.66,1-3.49,2-7.11,2.81-11,.1-.47.2-.92.3-1.36a17.82,17.82,0,0,0,.5-2.82l1.25-.81c2.4-1.51,4.68-3,6.39-6,4.78-3.52,7.32-6.7,7.95-10a6.9,6.9,0,0,1,1.54-.79c1.39-.57,3.27-1.35,3.46-3.77a8.78,8.78,0,0,0,2.69-4.62c.48-.61,1-1.23,1.51-1.85,1.75-2.11,3.42-4.11,3.82-5.8,2.49-1.83,4.75-3.6,4.12-6.09a4.67,4.67,0,0,0,2.07-4.33,7.6,7.6,0,0,1,1.69-1,5.33,5.33,0,0,0,2.61-2c.17-.21.6-.71,1-1.2.71-.81.69-1.84,1.1-2.83V20.82c-.68-1.81-.72-3.47-2.05-4.5a2.25,2.25,0,0,0-.75-.41c.19-1,.51-2,.82-3,.16-.52.32-1,.46-1.54,1.08-1.75,1.21-3.18.38-4.26l0-.06L153.59,7a2.25,2.25,0,0,0-1.57-.7c-1.41,0-2.36,1.46-3.48,3.43-.26.53-.57,1.21-.89,1.91-.42.91-.85,1.86-1.22,2.55a20.87,20.87,0,0,0-2.15,3.5,11.67,11.67,0,0,0-3,6c-.17.25-.3.46-.42.66a5.47,5.47,0,0,1-.31.47l-.25,0a2,2,0,0,0-1.59.82l-.16.19-.05.24a2.54,2.54,0,0,1-.29.69l-.1.2c-2.07,0-3.06,2.42-3.48,3.66l-.11.05a3.54,3.54,0,0,0-1.73,1.19,5,5,0,0,0-.67.8,3.08,3.08,0,0,1-.33.41,3.51,3.51,0,0,0-2.17,1.91,5,5,0,0,1-.46.7,5,5,0,0,0-2,2.18,4.88,4.88,0,0,0-2.71,2.62,7.2,7.2,0,0,0-3.1,3.36,6,6,0,0,0-4.1,2.78,11.55,11.55,0,0,0-4,4.25,15.71,15.71,0,0,0-3.82,4.66,7.22,7.22,0,0,0-2.26-.36,8.24,8.24,0,0,0-2.92.55c-1-.24-2-.43-2.93-.61a.42.42,0,0,1,0-.58l.17-.25V51.79h0c.5-1.76,1-3.52,1.49-5.33a17.86,17.86,0,0,0,.91-9.93,18.45,18.45,0,0,0-1.45-8.7l-.11-.25-.22-.16A22.53,22.53,0,0,0,90,23a27.13,27.13,0,0,0-3.47-.24A17.16,17.16,0,0,0,78,24.91c-.92.53-1.81,1.13-2.67,1.72s-1.66,1.14-2.46,1.6c-1.59.8-2.8,3.11-4.07,5.56-.55,1.05-1.11,2.13-1.67,3l0,.06,0,.07c-1,2.15-1.2,3.57-.63,4.47a1.82,1.82,0,0,0,1.58.81A3.09,3.09,0,0,0,69,42c0,.58-.2,1.43-.3,2s-.17.94-.23,1.38a4.73,4.73,0,0,0-1.29,5l0,.1a7.64,7.64,0,0,1,.59,3.83l-.47.22c-.86-.46-1.65-.85-2.52-1.26l-.08,0-.09,0A6.89,6.89,0,0,0,63,53a5.85,5.85,0,0,0-1.61.23A4.61,4.61,0,0,0,58,51.84l-.55,0-1.92-1.55c-.3-3.15-2.09-5.18-4.87-5.54a15.42,15.42,0,0,0-1.71-1c-.41-.22-.8-.43-1.19-.67V41.2l0-.15a5.81,5.81,0,0,0-4.11-4.17l-.2-.07-.2,0h-.15c-.61,0-.92-.46-1.6-1.66-.21-.37-.43-.76-.68-1.14l-.08-.13-.11-.09c-.64-.53-1.26-1.1-1.88-1.67s-1.48-1.34-2.24-1.95a7,7,0,0,0-1.52-1.41,5.15,5.15,0,0,1-1.17-1.07l-.14-.21-.23-.12a5.22,5.22,0,0,1-1-.75,7.67,7.67,0,0,0-1.32-1c-.1-.14-.25-.39-.37-.58a7.7,7.7,0,0,0-1.26-1.71,2.72,2.72,0,0,0-1.84-.66l-.23-.32a7.32,7.32,0,0,1-.57-.87l-.1-.17-.15-.13c-1-.79-2.06-1.54-3-2.21-.54-.68-1.1-1.34-1.66-2l-.85-1L21,15.92c-.35-.26-.68-.52-1-.78l-.8-.61a39.74,39.74,0,0,0-2.49-3.92,30.21,30.21,0,0,1-2-3.16l0-.07,0-.06a2.8,2.8,0,0,1-.45-1.17,4.65,4.65,0,0,0-.69-1.77L12.35,2.32C12,1.54,11.48.88,11.07.11L9.79,0H8.88c-1,.22-1.47.72-1.47,1.46ZM68.9,39.81a3.09,3.09,0,0,1,1.51-1,31.32,31.32,0,0,1,3.14-.18c2.93,0,7,.47,12.94,4.15,2,1.13,3.82,2.07,5.68,2.1a5.14,5.14,0,0,1-2,1c-3.82.21-6.94.31-9.54.31-7.63,0-9.49-.94-9.94-1.36a21.51,21.51,0,0,0,.4-2.47c0-.49.11-1,.19-1.41l.2-1.17H70.25a2.34,2.34,0,0,0-.84.12l-.14.05v-.1A2.6,2.6,0,0,1,68.9,39.81Z"/><path class="cls-2" d="M68.89,55.4c1.42,6.66,13.82,3.87,26.57.4-5.35,2.5-10.87,5.18-18,5-6.37-.12-9.89-1.76-8.53-5.41m86-55.4H9.79c.11,0,.17.06.28.11.48.89.94,1.78,1.39,2.66l1.11,2.12c.74,1.08.4,1.94,1.2,3,1.08,2.1,3.3,4.72,4.61,7.28.68.51,1.31,1,2,1.53.85,1,1.7,2,2.5,3,1,.74,2.05,1.48,3.07,2.27.46.8.63.91,1.14,1.71a2.25,2.25,0,0,1,1.71.4,24.3,24.3,0,0,1,1.64,2.33c1,.51,1.54,1.31,2.51,1.82.68,1,2.1,1.59,2.79,2.62,1.42,1.14,2.78,2.5,4.21,3.69C41,36.23,41.47,38,43.29,37.83a4.83,4.83,0,0,1,3.47,3.53v2.27c1.2.85,2.39,1.25,3.53,2.1C53,46,54.43,48,54.56,50.81l2.59,2.09a3.84,3.84,0,0,1,4,1.53,4.88,4.88,0,0,1,3.29-.22c1,.46,1.9.92,2.91,1.47L68.69,55a8.28,8.28,0,0,0-.54-4.85c-.46-1.88-.06-3.3,1.25-4.26.23-1.89,1-4.67.34-5.07a1.49,1.49,0,0,1,.51-.06A35.74,35.74,0,0,1,69.57,45c.91,2.51,10.53,2.45,20.71,1.88,2.1-.51,3.92-2.1,3.07-3.18-2,.57-4.16-.57-6.37-1.82-7.11-4.44-12.06-4.55-16.67-4.1-1.36.11-4.32,3-1.08,3.07h-.06c-1.64.8-3.07.4-1.25-3.52,1.77-2.74,3.42-7.23,5.35-8.2,1.76-1,3.41-2.33,5.17-3.35C81.75,24,85.1,23.38,89.94,24c3.86,0,8.47,1.87,11.66,4.2A17.45,17.45,0,0,1,103,36.58a17,17,0,0,1-.85,9.55c-.51,1.88-1,3.7-1.54,5.52v2.27a1.48,1.48,0,0,0,.29,2c1.19.23,2.33.46,3.52.74a6.72,6.72,0,0,1,5.52,0c1.59-2.56,2.62-4.15,4.21-5.23A10.36,10.36,0,0,1,118,47.27a5,5,0,0,1,4-2.56,6.37,6.37,0,0,1,3.18-3.59c.45-1.08,1.54-2.44,2.56-2.38a4.65,4.65,0,0,1,1.93-2.28c.86-.85,1.08-2.33,2.45-2.5.62-.4.8-1.08,1.42-1.53.06-.46,1.31-.86,1.82-1.14.8-2.51,1.88-3.82,3.36-3.25,0-.57.51-1,.68-1.82a1,1,0,0,1,1.31-.34c.68-.39.79-1,1.48-1.87,0-1.88,1.53-4.38,2.84-5.81a20.33,20.33,0,0,1,2.17-3.52c.67-1.26,1.53-3.3,2.16-4.55,1.36-2.4,2.27-3.59,3.47-2.45.56.74.39,1.82-.52,3.24a38,38,0,0,0-1.48,5.8c2.17.29,3.13,1.14,3,3a7,7,0,0,1,.52.57,2.19,2.19,0,0,1,.16.2l.23.31Zm-.23,26s-.76.91-1.15,1.34c-.56.64-1.12,1.27-1.58,1.85-.8,1.48-3.3,1.65-4.55,3.19a3.69,3.69,0,0,1-2.22,4.21c1.14,2.27-.85,3.81-3.81,6-.17,1.93-3.18,5-5.35,7.79A8,8,0,0,1,133.22,55c0,3.24-3.47,2.9-4.94,4.49-.52,3.36-3.36,6.54-7.8,9.79-2,3.64-4.89,4.89-7.9,6.94.17.79-.35,2.55-.74,4.49-2.51,11.55-6.38,20.42-7.28,33.79-.06.51-.52,1-.52,1.48a13.87,13.87,0,0,0,.46,2.16c.21,1,.43,2.06.62,3.08h49.72V25.71l-.23.28"/><path class="cls-3" d="M57.11,73.55A74.84,74.84,0,0,1,44.54,63.48c-2.67-2.56-7.28-6.54-7.56-9.27-.17-1.48-1.59-2.22-2.33-3.36-3-2.27-4-4.72-7.74-9.55-.8-1.54-2.11-2.85-4.44-4.61-1.25-1.54-2.16-3.19-3.41-4.72-.17-.23-.68-.68-.85-.86A10.65,10.65,0,0,1,17,29c-1-1.25-1.53-1.08-1.07-3-.29-1.14-.69-2.22-2.28-2.22-1,.4-2-1-2.67-1.77-.63-1.7-1-2.62-1.6-4.26-.34,1.3-1.08,2.39-2,2-1.81-.8-1-2.22-1.76-4.27-.57-1.7-1.13-1.31.85-3.87,1.2-1.48,2.05-2.39,3.53-2.33,0-1.19-.57-1.93-.57-3.13l-1-3.75c0-1.14.06-2.11.57-2.39H0V121.18H62.36c.56-2.4,1-4.63,1.64-7.13,1.13-13-2.51-28.56-6.89-40.5"/><path class="cls-1" d="M201.24,84.38H174.31L193.93,41.6h26.93ZM227.92,26.2H201l-4.7,10.27h26.92ZM490.14,41.6H463.21L443.59,84.38h26.93Zm7.06-15.4H470.27l-4.71,10.27h26.93ZM238.26,84.38H211.34L238,26.2h53.85c7.44,0,10.66,6.13,7.19,13.69L292,55.29C288.53,62.85,279.69,69,272.26,69h1.68l4.71,15.4H251.73L247,69h-1.69Zm9.42-20.54h13.47l14.91-32.51H262.59ZM524.81,46.73h13.46L521,84.38h26.93l13.34-29.09c3.47-7.56.25-13.69-7.18-13.69H500.23L480.61,84.38h26.93Zm-155.4,8.56L356.07,84.38H302.22c-7.44,0-10.66-6.13-7.19-13.69l2.36-5.13A24,24,0,0,1,304.27,57c3.9-3.13,8.61-5.14,12.86-5.14h26.93l2.35-5.13H312.75l2.36-5.13h47.12c7.43,0,10.65,6.13,7.18,13.69M341.7,57H328.24L318,79.24H331.5Zm37.93,27.38H420c7.43,0,16.27-6.13,19.74-13.69l.78-1.71H413.63l-4.71,10.26H395.45l14.91-32.51h13.47L419.12,57h26.93l.78-1.71c3.47-7.56.25-13.69-7.19-13.69H399.25c-4.25,0-9,2-12.86,5.13a24.35,24.35,0,0,0-6.88,8.56l-7.06,15.4c-3.47,7.56-.25,13.69,7.18,13.69M645,41.6,626.92,81A24.21,24.21,0,0,1,620,89.51c-3.9,3.12-8.61,5.13-12.86,5.13H169.31l2.36-5.13h424.4l2.35-5.13H571.5c-4.25,0-7.12-2-8.16-5.14-.77-2.34-.51-5.32,1-8.55l7.06-15.4a24.35,24.35,0,0,1,6.88-8.56c3.9-3.12,8.61-5.13,12.85-5.13H645Zm-29.28,5.13H602.22L587.31,79.24h13.47Zm32.15-6.2a4.15,4.15,0,0,0,.41.91,3.86,3.86,0,0,0,1.42,1.36,3.76,3.76,0,0,0,.93.37,3.88,3.88,0,0,0,1,.12,4.34,4.34,0,0,0,1-.16,3.77,3.77,0,0,0,1.69-1,3.79,3.79,0,0,0,1-1.72,4.46,4.46,0,0,0,.12-1,3.53,3.53,0,0,0-.17-1,3.45,3.45,0,0,0-.41-.92,3.81,3.81,0,0,0-.62-.77,4.06,4.06,0,0,0-.79-.59,4.28,4.28,0,0,0-.94-.37,3.86,3.86,0,0,0-2.06,0,4.23,4.23,0,0,0-.92.41,4.33,4.33,0,0,0-1.36,1.42,4.28,4.28,0,0,0-.37.94,4.34,4.34,0,0,0-.12,1,3.89,3.89,0,0,0,.17,1m.64-1.92a3,3,0,0,1,.3-.79,3.17,3.17,0,0,1,1.1-1.2,3.19,3.19,0,0,1,.75-.34,3,3,0,0,1,.85-.13,2.94,2.94,0,0,1,1.63.41,3.36,3.36,0,0,1,.65.49,3.25,3.25,0,0,1,.51.65,3.39,3.39,0,0,1,.33.78,3.16,3.16,0,0,1,.13.87,3.2,3.2,0,0,1-.22,1.28,3.1,3.1,0,0,1-1.65,1.76,3.15,3.15,0,0,1-3.51-.62,3.12,3.12,0,0,1-.69-1,3.18,3.18,0,0,1-.27-1.27,3.21,3.21,0,0,1,.09-.88m2.78,1.45a.35.35,0,0,1,.2,0,.25.25,0,0,1,.12.11l.79,1.36a.33.33,0,0,0,.33.17l1.08,0-1-1.59-.16-.23a.68.68,0,0,0-.21-.17,1.35,1.35,0,0,0,.74-.53,1.33,1.33,0,0,0,.22-.82,1.17,1.17,0,0,0-.47-1,2.31,2.31,0,0,0-1.45-.32l-1.68,0,.09,4.71,1.13,0,0-1.7Zm-.33-2.14h.56a1.23,1.23,0,0,1,.4,0,.53.53,0,0,1,.24.11.37.37,0,0,1,.12.2,1.27,1.27,0,0,1,0,.29,1.39,1.39,0,0,1,0,.3.5.5,0,0,1-.13.22.57.57,0,0,1-.27.14,1.72,1.72,0,0,1-.44,0l-.46,0Z"/></svg>